<svg width="60" height="26" viewBox="0 0 60 26" fill="none" xmlns="http://www.w3.org/2000/svg">
<path d="M4.893 16.3307L0 5.30566H1.554L6.048 15.5327H5.313L9.87 5.30566H11.34L6.426 16.3307H4.893Z" fill="black"/>
<path d="M17.6052 16.4357C16.4572 16.4357 15.4492 16.1977 14.5812 15.7217C13.7132 15.2317 13.0342 14.5667 12.5442 13.7267C12.0542 12.8727 11.8092 11.8997 11.8092 10.8077C11.8092 9.71566 12.0402 8.74966 12.5022 7.90966C12.9782 7.06966 13.6222 6.41166 14.4342 5.93566C15.2602 5.44566 16.1842 5.20066 17.2062 5.20066C18.2422 5.20066 19.1592 5.43866 19.9572 5.91466C20.7692 6.37666 21.4062 7.03466 21.8682 7.88866C22.3302 8.72866 22.5612 9.70166 22.5612 10.8077C22.5612 10.8777 22.5542 10.9547 22.5402 11.0387C22.5402 11.1087 22.5402 11.1857 22.5402 11.2697H12.9432V10.1567H21.7422L21.1542 10.5977C21.1542 9.79966 20.9792 9.09266 20.6292 8.47666C20.2932 7.84666 19.8312 7.35666 19.2432 7.00666C18.6552 6.65666 17.9762 6.48166 17.2062 6.48166C16.4502 6.48166 15.7712 6.65666 15.1692 7.00666C14.5672 7.35666 14.0982 7.84666 13.7622 8.47666C13.4262 9.10666 13.2582 9.82766 13.2582 10.6397V10.8707C13.2582 11.7107 13.4402 12.4527 13.8042 13.0967C14.1822 13.7267 14.7002 14.2237 15.3582 14.5877C16.0302 14.9377 16.7932 15.1127 17.6472 15.1127C18.3192 15.1127 18.9422 14.9937 19.5162 14.7557C20.1042 14.5177 20.6082 14.1537 21.0282 13.6637L21.8682 14.6297C21.3782 15.2177 20.7622 15.6657 20.0202 15.9737C19.2922 16.2817 18.4872 16.4357 17.6052 16.4357Z" fill="black"/>
<path d="M25.386 16.3307V0.748657H26.877V16.3307H25.386Z" fill="black"/>
<path d="M30.8157 16.3307V5.30566H32.3067V16.3307H30.8157Z" fill="black"/>
<path d="M36.2453 16.3307V5.30566H37.6733V8.32966L37.4423 7.76266C37.7923 6.96466 38.3523 6.34166 39.1223 5.89366C39.8923 5.43166 40.8093 5.20066 41.8733 5.20066C42.7693 5.20066 43.5533 5.37566 44.2253 5.72566C44.9113 6.06166 45.4433 6.57966 45.8213 7.27966C46.2133 7.97966 46.4093 8.86166 46.4093 9.92566V16.3307H44.9183V10.0727C44.9183 8.91066 44.6243 8.03566 44.0363 7.44766C43.4623 6.84566 42.6503 6.54466 41.6003 6.54466C40.8163 6.54466 40.1303 6.70566 39.5423 7.02766C38.9683 7.33566 38.5203 7.79066 38.1983 8.39266C37.8903 8.98066 37.7363 9.69466 37.7363 10.5347V16.3307H36.2453Z" fill="black"/>
<path d="M54.9098 16.4357C53.7618 16.4357 52.7537 16.1977 51.8857 15.7217C51.0177 15.2317 50.3388 14.5667 49.8488 13.7267C49.3588 12.8727 49.1138 11.8997 49.1138 10.8077C49.1138 9.71566 49.3448 8.74966 49.8068 7.90966C50.2828 7.06966 50.9268 6.41166 51.7388 5.93566C52.5648 5.44566 53.4887 5.20066 54.5107 5.20066C55.5467 5.20066 56.4637 5.43866 57.2617 5.91466C58.0737 6.37666 58.7108 7.03466 59.1728 7.88866C59.6348 8.72866 59.8658 9.70166 59.8658 10.8077C59.8658 10.8777 59.8588 10.9547 59.8448 11.0387C59.8448 11.1087 59.8448 11.1857 59.8448 11.2697H50.2477V10.1567H59.0468L58.4588 10.5977C58.4588 9.79966 58.2838 9.09266 57.9338 8.47666C57.5978 7.84666 57.1358 7.35666 56.5478 7.00666C55.9598 6.65666 55.2807 6.48166 54.5107 6.48166C53.7547 6.48166 53.0758 6.65666 52.4738 7.00666C51.8718 7.35666 51.4027 7.84666 51.0667 8.47666C50.7307 9.10666 50.5628 9.82766 50.5628 10.6397V10.8707C50.5628 11.7107 50.7447 12.4527 51.1087 13.0967C51.4867 13.7267 52.0048 14.2237 52.6628 14.5877C53.3348 14.9377 54.0978 15.1127 54.9518 15.1127C55.6238 15.1127 56.2468 14.9937 56.8208 14.7557C57.4088 14.5177 57.9128 14.1537 58.3328 13.6637L59.1728 14.6297C58.6828 15.2177 58.0667 15.6657 57.3247 15.9737C56.5967 16.2817 55.7918 16.4357 54.9098 16.4357Z" fill="black"/>
<path d="M19.0827 24.3307V20.3407H19.3734V24.3307H19.0827ZM16.1244 24.3307V20.3407H16.4151V24.3307H16.1244ZM16.3809 22.4326V22.1761H19.1169V22.4326H16.3809ZM25.8797 24.3592C25.5833 24.3592 25.3078 24.3098 25.0532 24.211C24.8024 24.1084 24.582 23.9659 24.392 23.7835C24.2058 23.5973 24.0614 23.3826 23.9588 23.1394C23.8562 22.8924 23.8049 22.6245 23.8049 22.3357C23.8049 22.0469 23.8562 21.7809 23.9588 21.5377C24.0614 21.2907 24.2058 21.076 24.392 20.8936C24.582 20.7074 24.8024 20.5649 25.0532 20.4661C25.3078 20.3635 25.5833 20.3122 25.8797 20.3122C26.1761 20.3122 26.4497 20.3635 26.7005 20.4661C26.9551 20.5649 27.1755 20.7055 27.3617 20.8879C27.5479 21.0703 27.6923 21.285 27.7949 21.532C27.9013 21.7752 27.9545 22.0431 27.9545 22.3357C27.9545 22.6283 27.9013 22.8981 27.7949 23.1451C27.6923 23.3883 27.5479 23.6011 27.3617 23.7835C27.1755 23.9659 26.9551 24.1084 26.7005 24.211C26.4497 24.3098 26.1761 24.3592 25.8797 24.3592ZM25.8797 24.0913C26.1343 24.0913 26.3699 24.0476 26.5865 23.9602C26.8031 23.8728 26.9912 23.7493 27.1508 23.5897C27.3104 23.4301 27.4339 23.2439 27.5213 23.0311C27.6125 22.8183 27.6581 22.5865 27.6581 22.3357C27.6581 22.0811 27.6125 21.8493 27.5213 21.6403C27.4339 21.4275 27.3104 21.2413 27.1508 21.0817C26.9912 20.9221 26.8031 20.7986 26.5865 20.7112C26.3699 20.6238 26.1343 20.5801 25.8797 20.5801C25.6251 20.5801 25.3895 20.6238 25.1729 20.7112C24.9563 20.7986 24.7663 20.9221 24.6029 21.0817C24.4433 21.2413 24.3179 21.4275 24.2267 21.6403C24.1393 21.8493 24.0956 22.0811 24.0956 22.3357C24.0956 22.5865 24.1393 22.8183 24.2267 23.0311C24.3179 23.2439 24.4433 23.4301 24.6029 23.5897C24.7663 23.7493 24.9563 23.8728 25.1729 23.9602C25.3895 24.0476 25.6251 24.0913 25.8797 24.0913ZM32.3828 24.3307V20.3407H32.6279L34.4804 23.5384H34.3493L36.1961 20.3407H36.4355L36.4412 24.3307H36.1562L36.1505 20.7796H36.2303L34.4804 23.8006H34.3379L32.5823 20.7796H32.6678V24.3307H32.3828ZM41.2523 24.3307V20.3407H43.9199V20.6029H41.543V24.0685H44.0054V24.3307H41.2523ZM41.5088 22.4326V22.1761H43.6691V22.4326H41.5088Z" fill="black"/>
<line x1="12.979" y1="22.4807" x2="0.979" y2="22.4807" stroke="black" stroke-width="0.3"/>
<line x1="58.979" y1="22.4807" x2="46.979" y2="22.4807" stroke="black" stroke-width="0.3"/>
<path d="M31.229 2.13069V2.53069L31.929 1.73069V1.33069L31.229 2.13069Z" fill="black" stroke="black"/>
</svg>
